# xmcd
#
# Track frame offsets:
#	150
#	12967
#	25428
#	38328
#	56627
#	70045
#	85560
#	98385
#	110458
#	122059
#	134754
#	147896
#	159219
#	176527
#	189203
#	202817
#	214230
#	233631
#	246897
#	268079
#	280146
#	292965
#	306884
#	317962
#	331259
#	342268
#
# Disc length: 4737 seconds
#
# Revision: 0
# Processed by: cddbd v1.5.2PL0 Copyright (c) Steve Scherf et al.
# Submitted via: audiograbber 1.83.01
#
DISCID=68127f1a
DTITLE=Various Artist - Now That's What I Call Classic Soul  Disc 3
DYEAR=2017
DGENRE=Classic Soul
TTITLE0=Stevie Wonder - Uptight ( Everything's Alright )
TTITLE1=James Brown - I Got You ( I Feel Good )
TTITLE2=Sly and The Family Stone - Dance To The Music
TTITLE3=Bill Withers - Lovely Day
TTITLE4=The Supremes - Stoned Love
TTITLE5=The Temptations - Cloud Nine
TTITLE6=Martha and The Vandellas - Jimmy Mack
TTITLE7=Jr. Walker and The All Stars  - ( Im A ) Road Runner
TTITLE8=Chairmen Of The Board - Give Me Just A Little More Time
TTITLE9=Dobie Gray - Out On The Floor
TTITLE10=Marvin Gaye - How Sweet It Is  ( To Be Loved By You )
TTITLE11=Erma Franklin - Piece Of My Heart
TTITLE12=Harold Melvin and The Blue Notes - Din't Leave Me This Way
TTITLE13=Percy Sledge - When A man Loves A Woman
TTITLE14=Diana Ross - Reach Out And Touch ( Somebody's Hand )
TTITLE15=Etta James - I'd Rather Go Blind
TTITLE16=Gladys Night and The Pips - Help Me Make It Through The Night
TTITLE17=The Three Degrees - When Will I See You Again
TTITLE18=Billy Paul - Me And Mrs Jones
TTITLE19=Michael Jackson - Ben
TTITLE20=The Stylistics - You Are Everything
TTITLE21=The Spinners - It's A Shame
TTITLE22=The Supremes - Where Did Our Love Go
TTITLE23=The Miracles - You Really Got A Hold On Me
TTITLE24=The Velvelettes - He Was Really Sayin Somethin
TTITLE25=Marvine Gaye - Too Busy Thinking About My Baby
EXTD=
EXTT0=
EXTT1=
EXTT2=
EXTT3=
EXTT4=
EXTT5=
EXTT6=
EXTT7=
EXTT8=
EXTT9=
EXTT10=
EXTT11=
EXTT12=
EXTT13=
EXTT14=
EXTT15=
EXTT16=
EXTT17=
EXTT18=
EXTT19=
EXTT20=
EXTT21=
EXTT22=
EXTT23=
EXTT24=
EXTT25=
PLAYORDER=
